<svg xmlns="http://www.w3.org/2000/svg" viewBox="0 0 204.75 42.25"><defs><style>.a0ae4e6f-2fcf-476b-a32e-76f952523cc5{font-size:36px;font-family:Browning-Regular, Browning;}.a0ae4e6f-2fcf-476b-a32e-76f952523cc5,.bc010fc6-b770-446b-ae87-c3ae66c470a9{fill:#01d7e4;}.f79a3d9e-84a8-48a7-99ff-bef2b85a6b8b{fill:#fff;}</style></defs><g id="f86d5630-5154-4191-96ba-ff54811f5e16" data-name="Layer 2"><text class="a0ae4e6f-2fcf-476b-a32e-76f952523cc5" transform="translate(55.43572 34.74053)">Cafe Map</text><circle class="bc010fc6-b770-446b-ae87-c3ae66c470a9" cx="15.29328" cy="15.29328" r="15.29328"/><path class="bc010fc6-b770-446b-ae87-c3ae66c470a9" d="M30.58656,15.83146c0,8.44624-15.29328,26.326-15.29328,26.326S0,24.2777,0,15.83146a15.29328,15.29328,0,0,1,30.58656,0Z"/><circle class="f79a3d9e-84a8-48a7-99ff-bef2b85a6b8b" cx="15.29328" cy="15.29328" r="10.98784"/><path class="bc010fc6-b770-446b-ae87-c3ae66c470a9" d="M15.09976,22.89584a7.32048,7.32048,0,1,1,5.17631-12.49666,1.6516,1.6516,0,1,1-2.33571,2.33571,4.01693,4.01693,0,1,0,0,5.68094,1.6516,1.6516,0,1,1,2.33571,2.33572A7.2716,7.2716,0,0,1,15.09976,22.89584Z"/></g></svg>